Patient4_TMGait_0pt7_01_left_05_EMG.mot
version=1
nRows=20
nColumns=33
inDegrees=no
endheader
time	1LAddLong	2LGlutMax	3LGlutMed	4LIliopsoas	5LSemiMemb	6LBicFemLong	7LRecFem	8LVastMed	9LVastLat	10LGasMed	11LTibAnt	12lTibPost	13LPeroneusLong	14LSol	15LExtDigLong	16LFlexDigLong	17RAddLong	18RGlutMax	19RGlutMed	20RIliopsoas	21RSemiMemb	22RBicFemLong	23RRecFem	24RVastMed	25RVastLat	26RGasMed	27RTibAnt	28RTibPost	29RPeroneusLong	30RSol	31RExtDigLong	32RFlexDigLong
5.8	0.010376	0.11276	-0.040741	0.002899	-0.067444	-0.025177	-0.008698	0.014801	0.31342	-0.1358	0.15823	-0.000305	0.03006	0.015717	0.1651	0.006409	0.012054	-0.12482	0.049133	0.039368	-0.019226	0.21393	-0.010376	0.031891	0.077209	0.014191	-0.24017	-0.007019	3.165	-0.17944	-0.003967	0.00351
5.801	0.011902	0.031128	-0.048523	-0.010986	-0.016174	-0.035248	0.010071	0.001984	0.29541	-0.070496	0.053101	-0.008698	0.064545	-0.009766	-0.071259	0.010071	0.013275	-0.103	0.030365	0.005493	0.00061	0.095062	0.049286	-0.000153	-0.013733	0.00351	-0.11993	-0.012054	-0.26016	-0.006561	-0.009308	0.003662
5.802	0.004578	0.011139	-0.037384	-0.01709	-0.005341	0.02121	0.008087	0.01709	0.28046	0.012817	-0.033569	-0.005188	0.091705	0.027466	0.10956	0.009308	0.028687	-0.017395	0.31067	-0.025482	-0.023651	0.1358	0.10498	-0.055695	-0.032654	0.009155	0.071564	-0.005646	1.0558	0.1239	-0.000458	0.001068
5.803	-0.000763	-0.052185	-0.032654	-0.010071	-0.008392	0.046692	-0.011444	0.006714	0.27985	0.053406	-0.061646	-0.007019	0.08667	0.065765	-0.005646	0.008392	0.017395	0.015869	0.25253	-0.044403	-0.021667	0.34363	-0.014343	-0.035248	-0.022736	0.015717	-0.038147	-0.000305	0.90347	0.042877	-0.003967	0.006409
5.804	-0.005798	-0.077972	-0.06134	-0.010376	-0.049438	0.02594	-0.010376	0.010986	0.28259	0.051422	0.008698	0.00824	0.087585	0.068665	-0.096588	0.007782	-0.002136	0.11597	0.22675	-0.044098	-0.03479	0.21011	-0.032501	-0.042725	-0.019226	0.014648	-0.20721	-0.010834	-1.5378	-0.031586	-0.003357	0.001526
5.805	-0.006409	-0.13794	-0.051422	-0.00061	-0.064087	-0.007019	-0.024261	0.016937	0.26123	0.062714	0.035858	-0.010681	0.097198	0.017395	-0.21652	0.010071	0.003052	0.032959	0.44952	-0.064087	-0.037079	0.1091	0.15518	-0.035706	-0.032959	0.008392	0.010223	-0.018005	-1.7282	-0.079651	-0.005341	-0.000916
5.806	-0.002289	-0.20248	-0.034027	-0.002441	0.035095	0.00473	0.006866	0.00824	0.2478	0.061798	0.084534	-0.007172	0.10666	0.029602	0.19333	0.004425	-0.003662	0.015564	0.018616	-0.042725	-0.004883	0.23392	0.21484	-0.047455	-0.057831	-0.020294	0.11902	-0.021667	-0.79819	-0.08194	-0.000916	-0.009155
5.807	0.003204	-0.18753	-0.057373	0.001373	0.049744	0.007782	-0.016174	0.011139	0.24506	0.071411	0.080872	-0.000916	0.089111	0.003662	-0.16525	0.000153	-0.011444	0.054779	0.009613	0.04776	0.022736	0.13611	0.20798	-0.18295	-0.099335	-0.042725	-0.078735	-0.0177	0.5304	0.027466	-0.002136	-0.009003
5.808	0.008545	-0.18066	-0.042877	0.019684	-0.019226	0.05661	-0.019989	0.010986	0.25146	0.051727	0.006256	-0.002594	0.091248	-0.049744	0.16739	0.000305	-0.02182	0.061798	1.0997	0.040894	0.045776	0.082703	0.23483	-0.069122	0.036774	-0.027924	-0.11902	-0.013885	0.41397	0.30106	-0.002594	-0.001526
5.809	0.017395	-0.12711	-0.018616	0.000458	-0.13168	0.062714	-0.035858	0.006561	0.24597	0.019073	0.013428	-0.000153	0.093689	-0.063171	0.27893	-0.009308	-0.015411	0.051575	1.2582	-0.063782	0.039063	0.13489	0.3122	-0.054016	-0.039063	-0.013733	-0.14725	0.00824	0.15961	0.38986	-0.00473	-0.010681
5.81	0.021362	-0.098724	-0.036469	0.002594	-0.085907	0.03067	-0.035553	0.011292	0.23285	0.006714	0.016937	-0.005188	0.064087	0.045929	-0.095062	-0.003662	-0.00824	0.036163	-0.053711	-0.093384	0.00885	0.002747	0.30289	-0.28931	0.057068	-0.062408	-0.11047	0.002289	0.015564	0.1561	-0.002747	-0.013123
5.811	0.027008	-0.059357	-0.030518	-0.003815	0.031891	0.007019	-0.03952	-0.001678	0.23773	-0.00061	0.034027	-0.003815	0.072021	0.18509	-0.08316	0.00351	-0.000916	0.11139	-0.33173	-0.11032	-0.001831	-0.15533	0.096893	-0.33859	0.14603	-0.053711	-0.052185	-0.010529	0.11429	0.055695	0	-0.016174
5.812	0.022125	-0.024109	-0.04425	-0.007629	0.060425	-0.02533	-0.0354	0.015106	0.22949	0.021362	0.00885	-0.002289	0.075073	0.12466	0.48569	0.004272	-0.026245	0.14175	0.14954	-0.054932	0.026398	-0.099792	-0.60104	-0.048828	0.35141	-0.007172	0.1741	-0.025024	-0.34073	0.20599	-0.003815	-0.003967
5.813	0.020599	0.027161	-0.036469	0.000916	0.043335	-0.002747	-0.038147	0.015106	0.23209	0.010071	-0.02655	-0.009613	0.10346	-0.11368	-0.22507	0.009003	-0.057526	0.16617	0.66666	-0.045471	0.053711	-0.10941	-1.1052	0.28931	0.41992	0.011139	0.12283	-0.023193	-0.096436	0.15243	-0.001526	-0.014954
5.814	0.023956	0.064087	-0.048676	0.008698	0.036469	-0.00412	-0.052032	-0.003357	0.23422	-0.007782	-0.070801	-0.001984	0.1297	-0.47195	-0.4628	0.002747	-0.020599	0.177	0.069122	-0.031433	0.02655	-0.10742	-0.66086	0.504	0.44266	0.030212	0.18158	-0.040283	-0.17242	-0.03418	0	-0.00412
5.815	0.016479	0.063629	-0.031738	0.009918	0.002441	-0.00061	-0.058746	0.014191	0.23682	-0.001221	-0.018158	-0.005646	0.017395	-0.71716	-0.26611	-0.006561	0.004578	0.15076	-0.040283	0.094147	-0.013733	-0.095367	-0.24384	0.52277	0.1857	0.040741	-0.30563	0.018158	0.054932	-0.16312	-0.000458	-0.002441
5.816	0.014801	0.11292	-0.03006	0.00473	0.002747	0.00061	-0.058441	0.009766	0.21912	-0.037537	0.042419	0.003204	-0.038757	-0.70465	-0.16968	-0.018616	0.011139	0.20111	0.16525	0.087128	-0.033722	-0.15793	-0.12695	0.36179	-0.16235	0.018005	-0.2948	0.15274	0.60837	-0.20355	-0.003357	-0.007019
5.817	0.016174	0.14511	-0.039978	-0.000153	0.008087	-0.018463	-0.063477	0.008392	0.22736	-0.095215	0.027313	0.00351	-0.028381	-0.50415	-0.088196	-0.018005	0.009003	0.19669	0.35858	-0.006104	-0.046692	-0.17319	-0.2121	0.11917	-0.56641	0.014801	0.3273	0.00946	0.58334	-0.43228	-0.002899	-0.007935
5.818	0.007019	0.16205	-0.046082	0.000153	0.004272	-0.034027	-0.066528	0.007629	0.22842	-0.11902	-0.037994	0.004578	0.061951	-0.11734	-0.08606	0.004578	0.028076	0.14175	0.40283	-0.03891	-0.052948	-0.18768	-0.072937	-0.050812	-0.44525	-0.034027	0.57983	-0.034027	0.91736	-0.47546	-0.001678	-0.005951
5.819	0.01236	0.18646	-0.043488	0.010071	-0.008698	-0.032654	-0.081329	0.000458	0.22903	-0.068665	-0.042114	0.002441	0.10986	0.13336	-0.024567	-0.006104	0.024719	0.20996	0.4892	-0.075073	-0.063477	-0.21347	-0.085907	-0.17639	-0.30075	-0.1001	0.36209	-0.018463	1.1421	-0.50156	-0.008392	-0.00061
